<svg width="147" height="47" viewBox="0 0 147 47" fill="none" xmlns="http://www.w3.org/2000/svg">
<path d="M14.5394 12.827C16.9224 12.827 19.0477 13.3594 20.9155 14.4243C22.7832 15.4892 24.2323 16.9736 25.2628 18.8774C26.3255 20.7491 26.8568 22.895 26.8568 25.3151C26.8568 27.7999 26.2933 30.0103 25.1662 31.9464C24.0713 33.8503 22.5095 35.3347 20.4807 36.3996C18.4842 37.4645 16.1978 37.9969 13.6216 37.9969C9.2743 37.9969 5.90914 36.5125 3.52616 33.5438C1.17539 30.5427 0 26.3316 0 20.9104C0 15.6505 1.07878 11.5362 3.23634 8.56746C5.3939 5.56643 8.69465 3.58187 13.1386 2.6138L24.8281 0L25.5043 4.25953L14.7326 6.5829C11.3836 7.32509 8.88787 8.58359 7.24554 10.3584C5.60322 12.1332 4.66935 14.6825 4.44393 18.0062C5.53882 16.3605 6.95572 15.0858 8.69465 14.1823C10.4336 13.2787 12.3818 12.827 14.5394 12.827ZM13.7182 34.1246C15.3606 34.1246 16.8097 33.7535 18.0656 33.0113C19.3537 32.2691 20.3519 31.2527 21.0604 29.9619C21.7688 28.6389 22.1231 27.1383 22.1231 25.4603C22.1231 22.9111 21.3502 20.862 19.8045 19.3131C18.2588 17.7642 16.23 16.9897 13.7182 16.9897C11.2064 16.9897 9.16159 17.7642 7.58367 19.3131C6.03795 20.862 5.26509 22.9111 5.26509 25.4603C5.26509 27.1383 5.61932 28.6389 6.32777 29.9619C7.06843 31.2527 8.0828 32.2691 9.3709 33.0113C10.659 33.7535 12.1081 34.1246 13.7182 34.1246Z" fill="#C22926"/>
<path d="M44.4446 37.9001C41.9006 37.9001 39.6143 37.3354 37.5855 36.206C35.5568 35.0766 33.9627 33.5276 32.8034 31.5592C31.6764 29.5585 31.1128 27.2997 31.1128 24.7827C31.1128 22.2657 31.6764 20.023 32.8034 18.0546C33.9627 16.0539 35.5568 14.505 37.5855 13.4078C39.6143 12.2784 41.9006 11.7137 44.4446 11.7137C46.9886 11.7137 49.2589 12.2784 51.2554 13.4078C53.2842 14.505 54.8621 16.0539 55.9892 18.0546C57.1485 20.023 57.7281 22.2657 57.7281 24.7827C57.7281 27.2997 57.1485 29.5585 55.9892 31.5592C54.8621 33.5276 53.2842 35.0766 51.2554 36.206C49.2589 37.3354 46.9886 37.9001 44.4446 37.9001ZM51.5197 23.4919C52.7655 26.6129 50.4826 32.5725 44.4446 34.5893C47.1282 35.2616 51.0528 32.4072 52.1906 30.8869C54.2033 28.1978 56.2159 24.1642 54.2033 24.8365C51.6574 25.6868 54.2033 20.8028 52.8615 18.786C52.013 17.5107 49.5071 19.3131 48.8362 16.0969C48.1653 12.8807 45.7823 15.4246 44.14 15.4246C46.1527 21.4751 40.7641 16.027 39.4438 16.7692C38.1557 17.5114 35.4185 18.0062 37.5855 19.3131C39.658 20.563 34.719 27.8039 36.0894 26.181C43.4691 17.4414 40.7856 30.8869 43.4691 27.5256C44.3073 26.4756 42.432 23.309 44.4446 21.4751C46.4573 19.6411 49.8516 19.3131 51.5197 23.4919Z" fill="#C22926"/>
<path d="M76.5967 11.7137C79.1729 11.7137 81.4432 12.2623 83.4075 13.3594C85.4041 14.4566 86.9337 16.0055 87.9964 18.0062C89.0912 19.9746 89.6387 22.2496 89.6387 24.8311C89.6387 27.3804 89.1074 29.6553 88.0447 31.656C86.982 33.6244 85.5007 35.1572 83.6007 36.2544C81.7008 37.3515 79.5271 37.9001 77.0798 37.9001C75.1476 37.9001 73.4087 37.5613 71.863 36.8836C70.3172 36.1737 69.0291 35.1572 67.9987 33.8342V47H63.3132V24.8795C63.3132 22.298 63.8607 20.0069 64.9555 18.0062C66.0826 16.0055 67.6444 14.4566 69.641 13.3594C71.6697 12.2623 73.9883 11.7137 76.5967 11.7137ZM76.4518 33.8342C78.0941 33.8342 79.5754 33.4631 80.8957 32.7209C82.216 31.9464 83.2304 30.8816 83.9389 29.5263C84.6795 28.1387 85.0499 26.5736 85.0499 24.8311C85.0499 23.0886 84.6795 21.5396 83.9389 20.1843C83.2304 18.7968 82.216 17.7158 80.8957 16.9413C79.6076 16.1668 78.1263 15.7796 76.4518 15.7796C73.9078 15.7796 71.8469 16.6186 70.2689 18.2966C68.691 19.9423 67.9021 22.1044 67.9021 24.7827C67.9021 26.5575 68.2563 28.1387 68.9647 29.5263C69.7054 30.8816 70.7198 31.9464 72.0079 32.7209C73.296 33.4631 74.7773 33.8342 76.4518 33.8342Z" fill="#C22926"/>
<path d="M132.876 11.9557V37.6097H96.4065V11.9557H101.044V33.5438H112.347V11.9557H116.984V33.5438H128.239V11.9557H132.876ZM136.692 33.5438V43.0793H132.344V37.6097H128.045V33.5438H136.692Z" fill="#C22926"/>
<path d="M141.155 3.72708H146.614L145.696 26.9125H142.025L141.155 3.72708ZM143.909 37.9001C143.007 37.9001 142.25 37.6097 141.638 37.0288C141.026 36.4157 140.721 35.6735 140.721 34.8023C140.721 33.931 141.026 33.2049 141.638 32.6241C142.25 32.011 143.007 31.7044 143.909 31.7044C144.81 31.7044 145.551 32.011 146.131 32.6241C146.71 33.2049 147 33.931 147 34.8023C147 35.6735 146.694 36.4157 146.082 37.0288C145.503 37.6097 144.778 37.9001 143.909 37.9001Z" fill="#C22926"/>
</svg>
